<?xml version="1.0" encoding="UTF-8" standalone="no"?>
<svg
   version="1.1"
   x="0px"
   y="0px"
   viewBox="0 0 102 102.65577"
   enable-background="new 0 0 100 100"
   xml:space="preserve"
   id="svg3728"
   sodipodi:docname="noun-normal-distribution-graph-239048.svg"
   width="102"
   height="102.65577"
   inkscape:version="1.2.2 (732a01da63, 2022-12-09)"
   xmlns:inkscape="http://www.inkscape.org/namespaces/inkscape"
   xmlns:sodipodi="http://sodipodi.sourceforge.net/DTD/sodipodi-0.dtd"
   xmlns="http://www.w3.org/2000/svg"
   xmlns:svg="http://www.w3.org/2000/svg"><defs
     id="defs3732" /><sodipodi:namedview
     id="namedview3730"
     pagecolor="#ffffff"
     bordercolor="#000000"
     borderopacity="0.25"
     inkscape:showpageshadow="2"
     inkscape:pageopacity="0.0"
     inkscape:pagecheckerboard="0"
     inkscape:deskcolor="#d1d1d1"
     showgrid="false"
     inkscape:zoom="4.7687281"
     inkscape:cx="3.6697416"
     inkscape:cy="68.257194"
     inkscape:window-width="1920"
     inkscape:window-height="1001"
     inkscape:window-x="-9"
     inkscape:window-y="1341"
     inkscape:window-maximized="1"
     inkscape:current-layer="g3722" /><g
     id="g3722"
     style="stroke-width:51.7417;stroke-dasharray:none"
     transform="translate(1,1)"><g
       id="g5099"
       transform="translate(-1.7,0.32788467)"><g
         id="g3714"><path
           d="m 92.2,90.5 h -81 c -0.3,0 -0.5,-0.2 -0.5,-0.5 V 10 c 0,-0.3 0.2,-0.5 0.5,-0.5 0.3,0 0.5,0.2 0.5,0.5 v 79.5 h 80.5 c 0.3,0 0.5,0.2 0.5,0.5 0,0.3 -0.2,0.5 -0.5,0.5 z"
           id="path3712"
           style="stroke:#000000;stroke-width:2;stroke-dasharray:none;stroke-opacity:1" /></g><g
         id="g3718"
         style="stroke-width:51.7417;stroke-dasharray:none;paint-order:markers stroke fill"><path
           d="m 13.8,86.8 c -0.3,0 -0.5,-0.2 -0.5,-0.5 0,-0.3 0.2,-0.5 0.5,-0.5 19.1,0 23.9,-21.3 27.4,-36.9 2.2,-9.6 3.9,-17.3 8.3,-17.4 0,0 0,0 0,0 0.3,0 0.5,0.2 0.5,0.5 0,0.3 -0.2,0.5 -0.5,0.5 -3.6,0.1 -5.4,7.8 -7.3,16.6 C 38.6,65 33.7,86.8 13.8,86.8 Z"
           id="path3716"
           style="stroke:#000000;stroke-width:2;stroke-dasharray:none;stroke-opacity:1;paint-order:markers stroke fill" /></g><path
         d="M 85.2,86.8 C 65.3,86.8 60.4,65 56.8,49.1 54.8,40.2 53.1,32.6 49.5,32.5 49.2,32.5 49,32.3 49,32 c 0,-0.3 0.2,-0.5 0.5,-0.5 4.4,0.1 6.1,7.8 8.3,17.4 3.5,15.6 8.3,36.9 27.4,36.9 0.3,0 0.5,0.2 0.5,0.5 0,0.3 -0.2,0.5 -0.5,0.5 z"
         id="path3720"
         style="stroke:#000000;stroke-width:2;stroke-linecap:butt;stroke-dasharray:none;stroke-opacity:1" /></g></g></svg>
