<?xml version="1.0" encoding="UTF-8" standalone="no"?>
<svg
   version="1.1"
   x="0px"
   y="0px"
   viewBox="0 0 104 104.65577"
   enable-background="new 0 0 100 100"
   xml:space="preserve"
   id="svg5590"
   sodipodi:docname="noun-logarithmic-graph-239045.svg"
   inkscape:version="1.2.2 (732a01da63, 2022-12-09)"
   width="104"
   height="104.65577"
   xmlns:inkscape="http://www.inkscape.org/namespaces/inkscape"
   xmlns:sodipodi="http://sodipodi.sourceforge.net/DTD/sodipodi-0.dtd"
   xmlns="http://www.w3.org/2000/svg"
   xmlns:svg="http://www.w3.org/2000/svg"><defs
     id="defs5594" /><sodipodi:namedview
     id="namedview5592"
     pagecolor="#ffffff"
     bordercolor="#000000"
     borderopacity="0.25"
     inkscape:showpageshadow="2"
     inkscape:pageopacity="0.0"
     inkscape:pagecheckerboard="0"
     inkscape:deskcolor="#d1d1d1"
     showgrid="false"
     inkscape:zoom="4.7687281"
     inkscape:cx="31.979177"
     inkscape:cy="45.609646"
     inkscape:window-width="1920"
     inkscape:window-height="1001"
     inkscape:window-x="-9"
     inkscape:window-y="1341"
     inkscape:window-maximized="1"
     inkscape:current-layer="svg5590" /><g
     id="g5580"
     transform="translate(1,1)"><path
       d="M 90.9,90.5 H 9.9 C 9.6,90.5 9.4,90.3 9.4,90 V 10 c 0,-0.3 0.2,-0.5 0.5,-0.5 0.3,0 0.5,0.2 0.5,0.5 v 79.5 h 80.5 c 0.3,0 0.5,0.2 0.5,0.5 0,0.3 -0.2,0.5 -0.5,0.5 z"
       id="path5578"
       style="stroke:#000000;stroke-width:2;stroke-dasharray:none;stroke-opacity:1" /></g><g
     id="g5584"
     transform="translate(1,1)"><path
       d="m 13.1,86.8 c 0,0 0,0 0,0 -0.3,0 -0.5,-0.2 -0.5,-0.5 0,-0.2 0.7,-17.5 10,-34.5 8.6,-15.8 26.5,-34.6 63,-34.6 0.3,0 0.5,0.2 0.5,0.5 0,0.3 -0.2,0.5 -0.5,0.5 -36,0 -53.7,18.5 -62.1,34 -9.2,16.8 -9.9,33.9 -9.9,34.1 0,0.3 -0.2,0.5 -0.5,0.5 z"
       id="path5582"
       style="stroke:#000000;stroke-width:2;stroke-dasharray:none;stroke-opacity:1" /></g></svg>
